<mxfile host="app.diagrams.net" agent="Mozilla/5.0 (Macintosh; Intel Mac OS X 10_15_7) AppleWebKit/537.36 (KHTML, like Gecko) Chrome/130.0.0.0 Safari/537.36" version="24.8.3">
  <diagram name="Page-1" id="rSPWc30ckeKB__0c2YCx">
    <mxGraphModel dx="1975" dy="1065" grid="0" gridSize="10" guides="1" tooltips="1" connect="1" arrows="1" fold="1" page="1" pageScale="1" pageWidth="850" pageHeight="1100" math="0" shadow="0">
      <root>
        <mxCell id="0" />
        <mxCell id="1" parent="0" />
        <mxCell id="YSGQxTVDC3vCZNHh-uWx-55" value="" style="edgeStyle=orthogonalEdgeStyle;rounded=0;orthogonalLoop=1;jettySize=auto;html=1;" parent="1" source="YSGQxTVDC3vCZNHh-uWx-53" target="YSGQxTVDC3vCZNHh-uWx-54" edge="1">
          <mxGeometry relative="1" as="geometry" />
        </mxCell>
        <mxCell id="YSGQxTVDC3vCZNHh-uWx-53" value="Start" style="rounded=0;whiteSpace=wrap;html=1;" parent="1" vertex="1">
          <mxGeometry x="161" y="10" width="120" height="60" as="geometry" />
        </mxCell>
        <mxCell id="YSGQxTVDC3vCZNHh-uWx-57" value="" style="edgeStyle=orthogonalEdgeStyle;rounded=0;orthogonalLoop=1;jettySize=auto;html=1;" parent="1" source="YSGQxTVDC3vCZNHh-uWx-54" target="YSGQxTVDC3vCZNHh-uWx-56" edge="1">
          <mxGeometry relative="1" as="geometry" />
        </mxCell>
        <mxCell id="YSGQxTVDC3vCZNHh-uWx-54" value="Both the user and the computer should have 2 cards" style="whiteSpace=wrap;html=1;rounded=0;" parent="1" vertex="1">
          <mxGeometry x="161" y="100" width="120" height="60" as="geometry" />
        </mxCell>
        <mxCell id="YSGQxTVDC3vCZNHh-uWx-63" value="" style="edgeStyle=orthogonalEdgeStyle;rounded=0;orthogonalLoop=1;jettySize=auto;html=1;" parent="1" source="YSGQxTVDC3vCZNHh-uWx-56" target="YSGQxTVDC3vCZNHh-uWx-62" edge="1">
          <mxGeometry relative="1" as="geometry" />
        </mxCell>
        <mxCell id="YSGQxTVDC3vCZNHh-uWx-56" value="Calculate both user&#39;s and computer&#39;s score" style="whiteSpace=wrap;html=1;rounded=0;" parent="1" vertex="1">
          <mxGeometry x="161" y="190" width="120" height="60" as="geometry" />
        </mxCell>
        <mxCell id="YSGQxTVDC3vCZNHh-uWx-65" value="" style="edgeStyle=orthogonalEdgeStyle;rounded=0;orthogonalLoop=1;jettySize=auto;html=1;fillColor=#d5e8d4;strokeColor=#82b366;entryX=0;entryY=0.5;entryDx=0;entryDy=0;" parent="1" edge="1">
          <mxGeometry relative="1" as="geometry">
            <mxPoint x="291" y="330" as="sourcePoint" />
            <mxPoint x="381" y="298" as="targetPoint" />
            <Array as="points">
              <mxPoint x="311" y="330" />
              <mxPoint x="311" y="298" />
            </Array>
          </mxGeometry>
        </mxCell>
        <mxCell id="YSGQxTVDC3vCZNHh-uWx-69" value="User has&lt;div&gt;blackjack&lt;/div&gt;" style="edgeLabel;html=1;align=center;verticalAlign=middle;resizable=0;points=[];labelBackgroundColor=none;" parent="YSGQxTVDC3vCZNHh-uWx-65" vertex="1" connectable="0">
          <mxGeometry x="0.3619" y="1" relative="1" as="geometry">
            <mxPoint x="-9" y="-17" as="offset" />
          </mxGeometry>
        </mxCell>
        <mxCell id="YSGQxTVDC3vCZNHh-uWx-68" value="" style="edgeStyle=orthogonalEdgeStyle;rounded=0;orthogonalLoop=1;jettySize=auto;html=1;fillColor=#f8cecc;strokeColor=#b85450;entryX=0;entryY=0.5;entryDx=0;entryDy=0;" parent="1" target="YSGQxTVDC3vCZNHh-uWx-67" edge="1">
          <mxGeometry relative="1" as="geometry">
            <mxPoint x="291" y="330" as="sourcePoint" />
            <mxPoint x="381" y="380" as="targetPoint" />
            <Array as="points">
              <mxPoint x="311" y="330" />
              <mxPoint x="311" y="364" />
            </Array>
          </mxGeometry>
        </mxCell>
        <mxCell id="YSGQxTVDC3vCZNHh-uWx-70" value="Computer has&lt;div&gt;blackjack&lt;/div&gt;" style="edgeLabel;html=1;align=center;verticalAlign=middle;resizable=0;points=[];labelBackgroundColor=none;" parent="YSGQxTVDC3vCZNHh-uWx-68" vertex="1" connectable="0">
          <mxGeometry x="0.3619" relative="1" as="geometry">
            <mxPoint x="-1" y="18" as="offset" />
          </mxGeometry>
        </mxCell>
        <mxCell id="YSGQxTVDC3vCZNHh-uWx-73" value="" style="edgeStyle=orthogonalEdgeStyle;rounded=0;orthogonalLoop=1;jettySize=auto;html=1;fillColor=#f8cecc;strokeColor=#b85450;" parent="1" source="YSGQxTVDC3vCZNHh-uWx-62" target="YSGQxTVDC3vCZNHh-uWx-72" edge="1">
          <mxGeometry relative="1" as="geometry" />
        </mxCell>
        <mxCell id="YSGQxTVDC3vCZNHh-uWx-74" value="No" style="edgeLabel;html=1;align=center;verticalAlign=middle;resizable=0;points=[];labelBackgroundColor=none;" parent="YSGQxTVDC3vCZNHh-uWx-73" vertex="1" connectable="0">
          <mxGeometry x="0.376" relative="1" as="geometry">
            <mxPoint x="-10" y="-4" as="offset" />
          </mxGeometry>
        </mxCell>
        <mxCell id="YSGQxTVDC3vCZNHh-uWx-62" value="Does the user or computer have a blackjack" style="rhombus;whiteSpace=wrap;html=1;rounded=0;" parent="1" vertex="1">
          <mxGeometry x="151" y="280" width="140" height="100" as="geometry" />
        </mxCell>
        <mxCell id="YSGQxTVDC3vCZNHh-uWx-64" value="Win" style="whiteSpace=wrap;html=1;rounded=0;fillColor=#d5e8d4;strokeColor=#82b366;" parent="1" vertex="1">
          <mxGeometry x="381" y="280" width="60" height="32" as="geometry" />
        </mxCell>
        <mxCell id="YSGQxTVDC3vCZNHh-uWx-67" value="Lose" style="whiteSpace=wrap;html=1;rounded=0;fillColor=#f8cecc;strokeColor=#b85450;" parent="1" vertex="1">
          <mxGeometry x="382" y="348" width="60" height="32" as="geometry" />
        </mxCell>
        <mxCell id="YSGQxTVDC3vCZNHh-uWx-71" value="" style="endArrow=none;html=1;rounded=0;" parent="1" edge="1">
          <mxGeometry width="50" height="50" relative="1" as="geometry">
            <mxPoint x="291" y="330" as="sourcePoint" />
            <mxPoint x="311" y="330" as="targetPoint" />
          </mxGeometry>
        </mxCell>
        <mxCell id="YSGQxTVDC3vCZNHh-uWx-76" value="" style="edgeStyle=orthogonalEdgeStyle;rounded=0;orthogonalLoop=1;jettySize=auto;html=1;fillColor=#d5e8d4;strokeColor=#82b366;" parent="1" source="YSGQxTVDC3vCZNHh-uWx-72" target="YSGQxTVDC3vCZNHh-uWx-75" edge="1">
          <mxGeometry relative="1" as="geometry" />
        </mxCell>
        <mxCell id="YSGQxTVDC3vCZNHh-uWx-86" value="Yes" style="edgeLabel;html=1;align=center;verticalAlign=middle;resizable=0;points=[];labelBackgroundColor=none;" parent="YSGQxTVDC3vCZNHh-uWx-76" vertex="1" connectable="0">
          <mxGeometry x="-0.4381" y="-1" relative="1" as="geometry">
            <mxPoint x="18" y="-11" as="offset" />
          </mxGeometry>
        </mxCell>
        <mxCell id="YSGQxTVDC3vCZNHh-uWx-92" value="" style="edgeStyle=orthogonalEdgeStyle;rounded=0;orthogonalLoop=1;jettySize=auto;html=1;fillColor=#f8cecc;strokeColor=#b85450;" parent="1" source="YSGQxTVDC3vCZNHh-uWx-72" target="YSGQxTVDC3vCZNHh-uWx-91" edge="1">
          <mxGeometry relative="1" as="geometry" />
        </mxCell>
        <mxCell id="YSGQxTVDC3vCZNHh-uWx-93" value="No" style="edgeLabel;html=1;align=center;verticalAlign=middle;resizable=0;points=[];labelBackgroundColor=none;" parent="YSGQxTVDC3vCZNHh-uWx-92" vertex="1" connectable="0">
          <mxGeometry x="-0.6286" y="-1" relative="1" as="geometry">
            <mxPoint x="-9" y="1" as="offset" />
          </mxGeometry>
        </mxCell>
        <mxCell id="YSGQxTVDC3vCZNHh-uWx-72" value="Is the user&#39;s score&lt;div&gt;over 21&lt;/div&gt;" style="rhombus;whiteSpace=wrap;html=1;rounded=0;" parent="1" vertex="1">
          <mxGeometry x="151" y="410" width="140" height="100" as="geometry" />
        </mxCell>
        <mxCell id="YSGQxTVDC3vCZNHh-uWx-78" value="" style="edgeStyle=orthogonalEdgeStyle;rounded=0;orthogonalLoop=1;jettySize=auto;html=1;" parent="1" source="YSGQxTVDC3vCZNHh-uWx-75" target="YSGQxTVDC3vCZNHh-uWx-77" edge="1">
          <mxGeometry relative="1" as="geometry" />
        </mxCell>
        <mxCell id="YSGQxTVDC3vCZNHh-uWx-80" value="" style="edgeStyle=orthogonalEdgeStyle;rounded=0;orthogonalLoop=1;jettySize=auto;html=1;fillColor=#d5e8d4;strokeColor=#82b366;" parent="1" source="YSGQxTVDC3vCZNHh-uWx-75" target="YSGQxTVDC3vCZNHh-uWx-77" edge="1">
          <mxGeometry relative="1" as="geometry" />
        </mxCell>
        <mxCell id="YSGQxTVDC3vCZNHh-uWx-88" value="Yes" style="edgeLabel;html=1;align=center;verticalAlign=middle;resizable=0;points=[];labelBackgroundColor=none;" parent="YSGQxTVDC3vCZNHh-uWx-80" vertex="1" connectable="0">
          <mxGeometry x="0.2286" y="1" relative="1" as="geometry">
            <mxPoint x="-9" y="-9" as="offset" />
          </mxGeometry>
        </mxCell>
        <mxCell id="YSGQxTVDC3vCZNHh-uWx-84" style="edgeStyle=orthogonalEdgeStyle;rounded=0;orthogonalLoop=1;jettySize=auto;html=1;exitX=1;exitY=0;exitDx=0;exitDy=0;entryX=0;entryY=0.5;entryDx=0;entryDy=0;fillColor=#f8cecc;strokeColor=#b85450;" parent="1" source="YSGQxTVDC3vCZNHh-uWx-75" target="YSGQxTVDC3vCZNHh-uWx-83" edge="1">
          <mxGeometry relative="1" as="geometry" />
        </mxCell>
        <mxCell id="YSGQxTVDC3vCZNHh-uWx-85" value="No" style="edgeLabel;html=1;align=center;verticalAlign=middle;resizable=0;points=[];labelBackgroundColor=none;" parent="YSGQxTVDC3vCZNHh-uWx-84" vertex="1" connectable="0">
          <mxGeometry x="-0.1723" y="2" relative="1" as="geometry">
            <mxPoint x="17" y="30" as="offset" />
          </mxGeometry>
        </mxCell>
        <mxCell id="YSGQxTVDC3vCZNHh-uWx-75" value="Do they have an&lt;div&gt;Ace/11&lt;/div&gt;" style="rhombus;whiteSpace=wrap;html=1;rounded=0;" parent="1" vertex="1">
          <mxGeometry x="371" y="410" width="140" height="100" as="geometry" />
        </mxCell>
        <mxCell id="YSGQxTVDC3vCZNHh-uWx-89" style="edgeStyle=orthogonalEdgeStyle;rounded=0;orthogonalLoop=1;jettySize=auto;html=1;entryX=1;entryY=0.5;entryDx=0;entryDy=0;fillColor=#d5e8d4;strokeColor=#82b366;" parent="1" source="YSGQxTVDC3vCZNHh-uWx-77" target="YSGQxTVDC3vCZNHh-uWx-83" edge="1">
          <mxGeometry relative="1" as="geometry">
            <Array as="points">
              <mxPoint x="661" y="386" />
            </Array>
          </mxGeometry>
        </mxCell>
        <mxCell id="YSGQxTVDC3vCZNHh-uWx-90" value="Yes" style="edgeLabel;html=1;align=center;verticalAlign=middle;resizable=0;points=[];labelBackgroundColor=none;" parent="YSGQxTVDC3vCZNHh-uWx-89" vertex="1" connectable="0">
          <mxGeometry x="-0.3049" y="1" relative="1" as="geometry">
            <mxPoint x="-34" y="43" as="offset" />
          </mxGeometry>
        </mxCell>
        <mxCell id="YSGQxTVDC3vCZNHh-uWx-94" style="edgeStyle=orthogonalEdgeStyle;rounded=0;orthogonalLoop=1;jettySize=auto;html=1;entryX=1;entryY=0;entryDx=0;entryDy=0;fillColor=#f8cecc;strokeColor=#b85450;" parent="1" source="YSGQxTVDC3vCZNHh-uWx-77" target="YSGQxTVDC3vCZNHh-uWx-91" edge="1">
          <mxGeometry relative="1" as="geometry">
            <Array as="points">
              <mxPoint x="661" y="540" />
              <mxPoint x="256" y="540" />
            </Array>
          </mxGeometry>
        </mxCell>
        <mxCell id="YSGQxTVDC3vCZNHh-uWx-95" value="No" style="edgeLabel;html=1;align=center;verticalAlign=middle;resizable=0;points=[];labelBackgroundColor=none;" parent="YSGQxTVDC3vCZNHh-uWx-94" vertex="1" connectable="0">
          <mxGeometry x="-0.6712" relative="1" as="geometry">
            <mxPoint x="36" y="-20" as="offset" />
          </mxGeometry>
        </mxCell>
        <mxCell id="YSGQxTVDC3vCZNHh-uWx-77" value="If the Ace counts&lt;div&gt;as&amp;nbsp;&lt;span style=&quot;background-color: initial;&quot;&gt;1 insted of 11, are&lt;/span&gt;&lt;div&gt;they still over 21&lt;/div&gt;&lt;/div&gt;" style="rhombus;whiteSpace=wrap;html=1;rounded=0;" parent="1" vertex="1">
          <mxGeometry x="591" y="410" width="140" height="100" as="geometry" />
        </mxCell>
        <mxCell id="YSGQxTVDC3vCZNHh-uWx-83" value="Lose" style="whiteSpace=wrap;html=1;rounded=0;fillColor=#f8cecc;strokeColor=#b85450;" parent="1" vertex="1">
          <mxGeometry x="511" y="370" width="60" height="32" as="geometry" />
        </mxCell>
        <mxCell id="YSGQxTVDC3vCZNHh-uWx-97" value="" style="edgeStyle=orthogonalEdgeStyle;rounded=0;orthogonalLoop=1;jettySize=auto;html=1;fillColor=#d5e8d4;strokeColor=#82b366;" parent="1" source="YSGQxTVDC3vCZNHh-uWx-91" target="YSGQxTVDC3vCZNHh-uWx-96" edge="1">
          <mxGeometry relative="1" as="geometry" />
        </mxCell>
        <mxCell id="YSGQxTVDC3vCZNHh-uWx-98" value="Yes" style="edgeLabel;html=1;align=center;verticalAlign=middle;resizable=0;points=[];labelBackgroundColor=none;" parent="YSGQxTVDC3vCZNHh-uWx-97" vertex="1" connectable="0">
          <mxGeometry x="0.0286" relative="1" as="geometry">
            <mxPoint y="-10" as="offset" />
          </mxGeometry>
        </mxCell>
        <mxCell id="YSGQxTVDC3vCZNHh-uWx-102" value="" style="edgeStyle=orthogonalEdgeStyle;rounded=0;orthogonalLoop=1;jettySize=auto;html=1;fillColor=#f8cecc;strokeColor=#b85450;" parent="1" source="YSGQxTVDC3vCZNHh-uWx-91" target="YSGQxTVDC3vCZNHh-uWx-101" edge="1">
          <mxGeometry relative="1" as="geometry" />
        </mxCell>
        <mxCell id="YSGQxTVDC3vCZNHh-uWx-103" value="No" style="edgeLabel;html=1;align=center;verticalAlign=middle;resizable=0;points=[];labelBackgroundColor=none;" parent="YSGQxTVDC3vCZNHh-uWx-102" vertex="1" connectable="0">
          <mxGeometry x="-0.5537" y="-1" relative="1" as="geometry">
            <mxPoint x="-9" as="offset" />
          </mxGeometry>
        </mxCell>
        <mxCell id="YSGQxTVDC3vCZNHh-uWx-91" value="Ask the user if&lt;div&gt;they&amp;nbsp;&lt;span style=&quot;background-color: initial;&quot;&gt;want to get another&lt;/span&gt;&lt;div&gt;card&lt;/div&gt;&lt;/div&gt;" style="rhombus;whiteSpace=wrap;html=1;rounded=0;" parent="1" vertex="1">
          <mxGeometry x="151" y="540" width="140" height="100" as="geometry" />
        </mxCell>
        <mxCell id="YSGQxTVDC3vCZNHh-uWx-99" style="edgeStyle=orthogonalEdgeStyle;rounded=0;orthogonalLoop=1;jettySize=auto;html=1;entryX=1;entryY=0.5;entryDx=0;entryDy=0;" parent="1" source="YSGQxTVDC3vCZNHh-uWx-96" target="YSGQxTVDC3vCZNHh-uWx-56" edge="1">
          <mxGeometry relative="1" as="geometry">
            <Array as="points">
              <mxPoint x="761" y="590" />
              <mxPoint x="761" y="220" />
            </Array>
          </mxGeometry>
        </mxCell>
        <mxCell id="YSGQxTVDC3vCZNHh-uWx-96" value="Draw another card for the user" style="whiteSpace=wrap;html=1;rounded=0;" parent="1" vertex="1">
          <mxGeometry x="381" y="560" width="120" height="60" as="geometry" />
        </mxCell>
        <mxCell id="YSGQxTVDC3vCZNHh-uWx-100" value="Blackjack game" style="text;html=1;align=center;verticalAlign=middle;resizable=0;points=[];autosize=1;strokeColor=none;fillColor=none;" parent="1" vertex="1">
          <mxGeometry x="391" width="110" height="30" as="geometry" />
        </mxCell>
        <mxCell id="YSGQxTVDC3vCZNHh-uWx-107" value="" style="edgeStyle=orthogonalEdgeStyle;rounded=0;orthogonalLoop=1;jettySize=auto;html=1;" parent="1" source="YSGQxTVDC3vCZNHh-uWx-101" target="YSGQxTVDC3vCZNHh-uWx-106" edge="1">
          <mxGeometry relative="1" as="geometry" />
        </mxCell>
        <mxCell id="YSGQxTVDC3vCZNHh-uWx-101" value="Computer turn, if score is less than 17, keep drawing cards" style="whiteSpace=wrap;html=1;rounded=0;" parent="1" vertex="1">
          <mxGeometry x="161" y="670" width="120" height="60" as="geometry" />
        </mxCell>
        <mxCell id="YSGQxTVDC3vCZNHh-uWx-109" style="edgeStyle=orthogonalEdgeStyle;rounded=0;orthogonalLoop=1;jettySize=auto;html=1;entryX=0;entryY=0.5;entryDx=0;entryDy=0;fillColor=#d5e8d4;strokeColor=#82b366;" parent="1" source="YSGQxTVDC3vCZNHh-uWx-106" target="YSGQxTVDC3vCZNHh-uWx-108" edge="1">
          <mxGeometry relative="1" as="geometry" />
        </mxCell>
        <mxCell id="YSGQxTVDC3vCZNHh-uWx-110" value="Yes" style="edgeLabel;html=1;align=center;verticalAlign=middle;resizable=0;points=[];labelBackgroundColor=none;" parent="YSGQxTVDC3vCZNHh-uWx-109" vertex="1" connectable="0">
          <mxGeometry x="0.1038" y="1" relative="1" as="geometry">
            <mxPoint x="-3" y="-9" as="offset" />
          </mxGeometry>
        </mxCell>
        <mxCell id="YSGQxTVDC3vCZNHh-uWx-112" value="" style="edgeStyle=orthogonalEdgeStyle;rounded=0;orthogonalLoop=1;jettySize=auto;html=1;" parent="1" source="YSGQxTVDC3vCZNHh-uWx-106" target="YSGQxTVDC3vCZNHh-uWx-111" edge="1">
          <mxGeometry relative="1" as="geometry" />
        </mxCell>
        <mxCell id="YSGQxTVDC3vCZNHh-uWx-106" value="Has the computer&lt;div&gt;gone over 21&lt;/div&gt;" style="rhombus;whiteSpace=wrap;html=1;rounded=0;" parent="1" vertex="1">
          <mxGeometry x="151" y="760" width="140" height="100" as="geometry" />
        </mxCell>
        <mxCell id="YSGQxTVDC3vCZNHh-uWx-108" value="Win" style="whiteSpace=wrap;html=1;rounded=0;fillColor=#d5e8d4;strokeColor=#82b366;" parent="1" vertex="1">
          <mxGeometry x="381" y="794" width="60" height="32" as="geometry" />
        </mxCell>
        <mxCell id="YSGQxTVDC3vCZNHh-uWx-117" value="" style="edgeStyle=orthogonalEdgeStyle;rounded=0;orthogonalLoop=1;jettySize=auto;html=1;entryX=1;entryY=0.5;entryDx=0;entryDy=0;fillColor=#f8cecc;strokeColor=#b85450;" parent="1" source="YSGQxTVDC3vCZNHh-uWx-111" target="YSGQxTVDC3vCZNHh-uWx-116" edge="1">
          <mxGeometry x="-0.2" y="-10" relative="1" as="geometry">
            <mxPoint as="offset" />
          </mxGeometry>
        </mxCell>
        <mxCell id="YSGQxTVDC3vCZNHh-uWx-118" value="&lt;div&gt;User&#39;s score is&lt;/div&gt;&lt;div&gt;lower&lt;/div&gt;" style="edgeLabel;html=1;align=center;verticalAlign=middle;resizable=0;points=[];labelBackgroundColor=none;" parent="YSGQxTVDC3vCZNHh-uWx-117" vertex="1" connectable="0">
          <mxGeometry x="-0.08" y="-1" relative="1" as="geometry">
            <mxPoint x="3" y="1" as="offset" />
          </mxGeometry>
        </mxCell>
        <mxCell id="YSGQxTVDC3vCZNHh-uWx-124" style="edgeStyle=orthogonalEdgeStyle;rounded=0;orthogonalLoop=1;jettySize=auto;html=1;entryX=0.5;entryY=0;entryDx=0;entryDy=0;fillColor=#ffe6cc;strokeColor=#d79b00;" parent="1" source="YSGQxTVDC3vCZNHh-uWx-111" target="YSGQxTVDC3vCZNHh-uWx-123" edge="1">
          <mxGeometry relative="1" as="geometry" />
        </mxCell>
        <mxCell id="YSGQxTVDC3vCZNHh-uWx-125" value="Same score" style="edgeLabel;html=1;align=center;verticalAlign=middle;resizable=0;points=[];labelBackgroundColor=none;" parent="YSGQxTVDC3vCZNHh-uWx-124" vertex="1" connectable="0">
          <mxGeometry x="-0.4229" y="-1" relative="1" as="geometry">
            <mxPoint x="31" y="6" as="offset" />
          </mxGeometry>
        </mxCell>
        <mxCell id="YSGQxTVDC3vCZNHh-uWx-111" value="Compare both&lt;div&gt;results,&amp;nbsp;&lt;span style=&quot;background-color: initial;&quot;&gt;see who has the highest score&lt;/span&gt;&lt;/div&gt;" style="rhombus;whiteSpace=wrap;html=1;rounded=0;" parent="1" vertex="1">
          <mxGeometry x="151" y="890" width="140" height="100" as="geometry" />
        </mxCell>
        <mxCell id="YSGQxTVDC3vCZNHh-uWx-113" value="Win" style="whiteSpace=wrap;html=1;rounded=0;fillColor=#d5e8d4;strokeColor=#82b366;" parent="1" vertex="1">
          <mxGeometry x="381" y="924" width="60" height="32" as="geometry" />
        </mxCell>
        <mxCell id="YSGQxTVDC3vCZNHh-uWx-116" value="Lose" style="whiteSpace=wrap;html=1;rounded=0;fillColor=#f8cecc;strokeColor=#b85450;" parent="1" vertex="1">
          <mxGeometry x="1" y="924" width="60" height="32" as="geometry" />
        </mxCell>
        <mxCell id="YSGQxTVDC3vCZNHh-uWx-114" style="edgeStyle=orthogonalEdgeStyle;rounded=0;orthogonalLoop=1;jettySize=auto;html=1;entryX=0;entryY=0.5;entryDx=0;entryDy=0;fillColor=#d5e8d4;strokeColor=#82b366;" parent="1" source="YSGQxTVDC3vCZNHh-uWx-111" target="YSGQxTVDC3vCZNHh-uWx-113" edge="1">
          <mxGeometry relative="1" as="geometry" />
        </mxCell>
        <mxCell id="YSGQxTVDC3vCZNHh-uWx-115" value="User&#39;s score is&lt;div&gt;higher&lt;/div&gt;" style="edgeLabel;html=1;align=center;verticalAlign=middle;resizable=0;points=[];labelBackgroundColor=none;" parent="YSGQxTVDC3vCZNHh-uWx-114" vertex="1" connectable="0">
          <mxGeometry x="0.0762" y="1" relative="1" as="geometry">
            <mxPoint x="-9" y="1" as="offset" />
          </mxGeometry>
        </mxCell>
        <mxCell id="YSGQxTVDC3vCZNHh-uWx-123" value="Draw" style="whiteSpace=wrap;html=1;rounded=0;fillColor=#ffe6cc;strokeColor=#d79b00;" parent="1" vertex="1">
          <mxGeometry x="191" y="1040" width="60" height="32" as="geometry" />
        </mxCell>
      </root>
    </mxGraphModel>
  </diagram>
</mxfile>
